<svg width="1727" height="304" viewBox="0 0 1727 304" fill="none" xmlns="http://www.w3.org/2000/svg">
<path fill-rule="evenodd" clip-rule="evenodd" d="M-1 152L46.52 136.8C95.48 121.6 190.52 91.2 287 91.2C383.48 91.2 478.52 121.6 575 126.667C671.48 131.733 766.52 111.467 863 131.733C959.48 152 1054.52 212.8 1151 222.933C1247.48 233.067 1342.52 192.533 1439 197.6C1535.48 202.667 1630.52 253.333 1679.48 278.667L1727 304V0H1679.48C1630.52 0 1535.48 0 1439 0C1342.52 0 1247.48 0 1151 0C1054.52 0 959.48 0 863 0C766.52 0 671.48 0 575 0C478.52 0 383.48 0 287 0C190.52 0 95.48 0 46.52 0H-1V152Z" fill="#124559"/>
</svg>
